<svg xmlns="http://www.w3.org/2000/svg" xmlns:xlink="http://www.w3.org/1999/xlink" width="132" zoomAndPan="magnify" viewBox="0 0 98.88 98.999996" height="132" preserveAspectRatio="xMidYMid meet" version="1.0"><defs><clipPath id="62cb9bab48"><path d="M 56 3.160156 L 77 3.160156 L 77 53 L 56 53 Z M 56 3.160156 " clip-rule="nonzero"/></clipPath><clipPath id="992f4e092a"><path d="M 22 13 L 77 13 L 77 96.046875 L 22 96.046875 Z M 22 13 " clip-rule="nonzero"/></clipPath><clipPath id="538c2b4099"><path d="M 22 3.160156 L 43 3.160156 L 43 53 L 22 53 Z M 22 3.160156 " clip-rule="nonzero"/></clipPath></defs><g clip-path="url(#62cb9bab48)"><path fill="#8358ff" d="M 76.746094 13.589844 L 56.234375 3.128906 L 56.234375 43.539062 L 76.746094 52.648438 Z M 76.746094 13.589844 " fill-opacity="1" fill-rule="nonzero"/></g><g clip-path="url(#992f4e092a)"><path fill="#8358ff" d="M 68.753906 88.011719 C 73.90625 82.855469 76.730469 76.019531 76.730469 68.730469 L 76.730469 57.183594 L 53.316406 46.777344 C 52.570312 46.445312 52.089844 45.703125 52.089844 44.886719 L 52.089844 13.09375 L 46.882812 13.09375 L 46.882812 44.886719 C 46.882812 45.703125 46.402344 46.445312 45.65625 46.777344 L 22.230469 57.183594 L 22.230469 68.730469 C 22.230469 83.765625 34.460938 96.003906 49.488281 96.003906 C 56.785156 96.003906 63.632812 93.164062 68.753906 88.011719 Z M 44.046875 90.339844 L 40.394531 84.015625 C 40.023438 83.378906 40.023438 82.582031 40.394531 81.945312 L 44.046875 75.621094 C 44.417969 74.988281 45.09375 74.585938 45.835938 74.585938 L 53.136719 74.585938 C 53.878906 74.585938 54.554688 74.988281 54.925781 75.621094 L 58.578125 81.945312 C 58.949219 82.582031 58.949219 83.378906 58.578125 84.015625 L 54.925781 90.339844 C 54.554688 90.972656 53.878906 91.375 53.136719 91.375 L 45.835938 91.375 C 45.09375 91.375 44.417969 90.972656 44.046875 90.339844 Z M 44.046875 90.339844 " fill-opacity="1" fill-rule="nonzero"/></g><path fill="#8358ff" d="M 51.953125 78.707031 L 47.035156 78.707031 L 44.570312 82.96875 L 47.035156 87.238281 L 51.953125 87.238281 L 54.402344 82.96875 Z M 51.953125 78.707031 " fill-opacity="1" fill-rule="nonzero"/><g clip-path="url(#538c2b4099)"><path fill="#8358ff" d="M 22.230469 52.648438 L 42.765625 43.539062 L 42.765625 3.117188 L 22.230469 13.589844 Z M 22.230469 52.648438 " fill-opacity="1" fill-rule="nonzero"/></g></svg>